<svg xmlns="http://www.w3.org/2000/svg" viewBox="0 0 655.54 236.94"><defs><style>.cls-1{fill:#f5c3cb;}</style></defs><g id="layer-logo" data-name="layer-logo"><g id="layer-logo-2" data-name="layer-logo-2"><g id="FcNT3v.tif"><path class="cls-1" d="M192.27,81.24c8.49-1.2,17-2.28,25.6-2a137.39,137.39,0,0,1,48.39,10.51,149.57,149.57,0,0,1,34.82,20.31,11.65,11.65,0,0,1,4,5.4q6.18,17,12.7,33.86a6.08,6.08,0,0,1-.09,5c-7.74,18.5-18.37,35.24-31,50.74a264,264,0,0,1-20,21.93c-3.66,3.58-7.64,6.75-11.6,10h-.65c-3.35-3.71-6.87-7.29-10-11.15a217.88,217.88,0,0,1-30.23-48.22,249.55,249.55,0,0,1-20.77-76.3c-.37-3.4.25-6.94-1.16-10.22Z"/><path class="cls-1" d="M463.22,146.94c0,3.31-.12,5.71,0,8.1s-.78,3.42-3.37,3.45A170.59,170.59,0,0,1,438.44,157,317.29,317.29,0,0,1,401,150.58c-12.4-3-24.52-6.69-36-12.44a13.08,13.08,0,0,1-6.67-6.75C353.45,120,349,108.46,345,96.71a14,14,0,0,1,.11-8.26,152.84,152.84,0,0,1,33.31-63.52,154.87,154.87,0,0,1,26.94-24c1.61-1.15,2.52-1.44,4.11.51,12.78,15.74,22.67,33.17,31.18,51.49a252.47,252.47,0,0,1,17.58,51.73,191.38,191.38,0,0,1,4.47,31.18C462.9,139.83,463.26,143.83,463.22,146.94Z"/><path class="cls-1" d="M328.37,148c-5.65,0-5.54-.06-7.57-5.39-3.79-10-7.63-19.9-11.65-29.77-1-2.47-.6-3.84,1.5-5.43,8-6,17-9,26.87-9.81,1.85-.15,3.16.34,3.75,2.28,3.32,10.93,7.69,21.49,11.38,32.29,1.47,4.3.79,6.11-2.94,9.07C343.43,146.19,336.17,147.9,328.37,148Z"/></g><path d="M0,152.66H11.09V82.56H0V81.13H18.58c.93,0,1.86,0,2.8,0s1.86-.09,2.79-.16,1.87,0,2.8,0,1.86-.05,2.8-.05c2,0,3.78,0,5.34.1s3,.19,4.4.36A32.36,32.36,0,0,1,43.4,82c1.23.31,2.55.7,4,1.18a35.63,35.63,0,0,1,10.54,5.48,30.94,30.94,0,0,1,7.29,7.94,33.9,33.9,0,0,1,4.19,9.84,45.39,45.39,0,0,1,1.35,11.17,42.52,42.52,0,0,1-1.6,12.15,34.48,34.48,0,0,1-4.39,9.53,32.53,32.53,0,0,1-6.54,7.17,34.18,34.18,0,0,1-8,4.87,30.38,30.38,0,0,1-4.54,1.75,32.1,32.1,0,0,1-4.4.92c-1.49.2-3.14.34-4.94.41s-3.86.1-6.19.1c-1,0-2.07,0-3.2,0l-3.4-.15c-1.13-.07-2.24-.12-3.34-.16S18,154.1,17,154.1H0Zm21.08,0c1.13.14,2.44.25,3.94.31s3.15.11,4.95.11a63,63,0,0,0,6.74-.36,24.87,24.87,0,0,0,6.39-1.54,20.53,20.53,0,0,0,5.7-3.38A21.78,21.78,0,0,0,53.54,142,39.33,39.33,0,0,0,58,130.68,60.27,60.27,0,0,0,59.23,118a66.54,66.54,0,0,0-1.49-14.7,29.8,29.8,0,0,0-5-11.28,22.58,22.58,0,0,0-9.14-7.22,34.23,34.23,0,0,0-14.08-2.57c-1.67,0-3.18,0-4.55.11l-3.94.2Z"/><path d="M89,128.68c0,.69,0,1.39,0,2.1s0,1.63,0,2.72a64.87,64.87,0,0,0,.4,7.07,21.73,21.73,0,0,0,1.75,6.66,12.27,12.27,0,0,0,4,4.92,11.62,11.62,0,0,0,7,1.95,17.09,17.09,0,0,0,7.24-1.33,13.39,13.39,0,0,0,4.49-3.23,14,14,0,0,0,2.45-3.84q.8-1.95,1.2-3.18l1.5.31a31.54,31.54,0,0,1-1.15,3.23,15,15,0,0,1-2.7,4.2,16.33,16.33,0,0,1-5,3.69,18.2,18.2,0,0,1-8.14,1.59,25.25,25.25,0,0,1-9.24-1.65,21,21,0,0,1-7.35-4.71,21.33,21.33,0,0,1-4.79-7.33,25.36,25.36,0,0,1-1.7-9.48,22.79,22.79,0,0,1,1.75-8.76,24.6,24.6,0,0,1,4.79-7.53,24,24,0,0,1,7.15-5.28,19.37,19.37,0,0,1,14.78-1,17.74,17.74,0,0,1,5.94,3.33,18.37,18.37,0,0,1,4.6,6.1,21.5,21.5,0,0,1,1.85,9.43Zm20.58-1.43a20,20,0,0,0,.2-2.67V122a21.3,21.3,0,0,0-.65-5.74,9.51,9.51,0,0,0-1.8-3.59,6.38,6.38,0,0,0-2.8-1.89,10.77,10.77,0,0,0-3.54-.57,10.37,10.37,0,0,0-5.6,1.39,10.05,10.05,0,0,0-3.49,3.74,19.33,19.33,0,0,0-2,5.43,43.61,43.61,0,0,0-.85,6.46Z"/><path d="M128.49,110.13h24.17v1.44h-8.19l12.89,32.18,13.38-32.18h-8.19v-1.44h15.18v1.44h-5.39l-18.88,45.91-18.18-45.91h-6.79Z"/><path d="M183.13,152.66h7.69V111.57h-7.69v-1.44h16.28v42.53h7.69v1.44h-24Zm6.49-66.41a5.31,5.31,0,0,1,1.55-3.84,5.21,5.21,0,0,1,7.49,0,5.54,5.54,0,0,1,0,7.69,5.23,5.23,0,0,1-7.49,0A5.34,5.34,0,0,1,189.62,86.25Z"/><path d="M214.69,152.66h7.69v-71h-7.69V80.2H231v72.46h7.7v1.44h-24Z"/><path d="M276.52,152.66h11.09V82.56H276.52V81.13h32.17v1.43H297.6v70.1h11.09v1.44H276.52Z"/><path d="M316.48,152.66h7.69V111.57h-7.69v-1.44h16.08v11h.2c.4-.89,1-2,1.75-3.38a17.53,17.53,0,0,1,8.14-7.33,17.36,17.36,0,0,1,7.29-1.39c4.4,0,8,1.1,10.74,3.28s4.14,5.68,4.14,10.46v29.92h7.7v1.44h-24v-1.44h7.69v-33.1a10.9,10.9,0,0,0-1.85-6.56q-1.85-2.56-5.74-2.56a13.62,13.62,0,0,0-6.09,1.43,16.18,16.18,0,0,0-5.1,4,19.16,19.16,0,0,0-3.44,6,22.12,22.12,0,0,0-1.25,7.58v23.16h7.69v1.44h-24Z"/><path d="M382.6,139.75h1.1a39.79,39.79,0,0,0,1.8,5,17.31,17.31,0,0,0,2.95,4.61,13.92,13.92,0,0,0,11,4.77,8.9,8.9,0,0,0,5.69-2c1.66-1.33,2.5-3.5,2.5-6.51q0-3.89-1.95-5.48a15.06,15.06,0,0,0-4.55-2.51l-7.79-2.77c-1-.34-2.08-.77-3.25-1.28a11.8,11.8,0,0,1-3.24-2.15,10.39,10.39,0,0,1-2.45-3.54,13.84,13.84,0,0,1-.95-5.53,13,13,0,0,1,1.1-5.33,13.7,13.7,0,0,1,3-4.31,13.42,13.42,0,0,1,4.54-2.87,15.87,15.87,0,0,1,5.75-1,14.16,14.16,0,0,1,3.54.36c.9.24,1.68.48,2.35.72s1.26.48,1.8.71a4.57,4.57,0,0,0,1.9.36,1.71,1.71,0,0,0,1.59-.82h1.1v11.69h-1.1a42.46,42.46,0,0,0-1.59-4.36,17.58,17.58,0,0,0-2.15-3.74,8.83,8.83,0,0,0-3.1-2.56,9.54,9.54,0,0,0-4.34-.93q-4.8,0-7.45,2.21a7.28,7.28,0,0,0-2.64,5.89,5.85,5.85,0,0,0,2.24,5,23.39,23.39,0,0,0,6.65,3.13l7.29,2.46a20.91,20.91,0,0,1,7.69,4.51,10,10,0,0,1,3,7.58,14.65,14.65,0,0,1-1.05,5.43,13.22,13.22,0,0,1-3.1,4.67,15.75,15.75,0,0,1-5,3.23,17.57,17.57,0,0,1-6.74,1.23,16.55,16.55,0,0,1-4.05-.47c-1.23-.3-2.37-.63-3.4-1s-2-.67-2.84-1a7.22,7.22,0,0,0-2.4-.47,2.3,2.3,0,0,0-1.6.47,4.21,4.21,0,0,0-.8,1h-1.1Z"/><path d="M419.43,181.36h7.69V111.57h-7.69v-1.44h16.08v8.61h.2a15.66,15.66,0,0,1,5-7.12,13.64,13.64,0,0,1,8.94-2.82,17.79,17.79,0,0,1,8.09,1.9,23,23,0,0,1,6.69,5,23.8,23.8,0,0,1,4.6,7.33,23.9,23.9,0,0,1-.05,17.78,25.39,25.39,0,0,1-4.75,7.53,23.3,23.3,0,0,1-6.94,5.23,18.71,18.71,0,0,1-8.34,1.95,12.81,12.81,0,0,1-5.75-1.18,13.74,13.74,0,0,1-3.84-2.77,12.65,12.65,0,0,1-2.3-3.28,20,20,0,0,1-1.1-2.72h-.2v35.77h7.69v1.44h-24Zm41.25-50.73a65.19,65.19,0,0,0-.49-8.46,22.27,22.27,0,0,0-1.75-6.4,9.55,9.55,0,0,0-3.5-4.1,10.46,10.46,0,0,0-5.74-1.44,12.37,12.37,0,0,0-6.09,1.34,11.89,11.89,0,0,0-3.9,3.38,12.87,12.87,0,0,0-1.75,3.07,21,21,0,0,0-1,3.9,43.69,43.69,0,0,0-.55,5.17q-.15,2.92-.15,6.92a50.94,50.94,0,0,0,.5,7,22,22,0,0,0,1.9,6.51,12.41,12.41,0,0,0,3.94,4.77,13.47,13.47,0,0,0,13.24.2,9.83,9.83,0,0,0,3.6-4.71,25.34,25.34,0,0,0,1.5-7.44C460.59,137.41,460.68,134.18,460.68,130.63Z"/><path d="M475.74,152.66h7.69V111.57h-7.69v-1.44H492v42.53h7.69v1.44h-24Zm6.49-66.41a5.27,5.27,0,0,1,1.55-3.84,5.21,5.21,0,0,1,7.49,0,5.54,5.54,0,0,1,0,7.69,5.23,5.23,0,0,1-7.49,0A5.3,5.3,0,0,1,482.23,86.25Z"/><path d="M507.2,152.66h7.69V111.57H507.2v-1.44h16.08v10.35h.2a21.7,21.7,0,0,1,1.3-3.48,15,15,0,0,1,2.5-3.74,14.23,14.23,0,0,1,3.84-3,11.23,11.23,0,0,1,5.45-1.23,9.63,9.63,0,0,1,4,.77,8.74,8.74,0,0,1,2.8,2,7.34,7.34,0,0,1,1.6,2.72,10,10,0,0,1,.5,3.07q0,3.39-1.5,4.51a5.66,5.66,0,0,1-3.5,1.13q-4.4,0-4.39-2.87a4.39,4.39,0,0,1,.2-1.49c.13-.37.28-.75.45-1.12a12,12,0,0,0,.45-1.29,8.16,8.16,0,0,0,.2-2c0-2.18-1.17-3.28-3.5-3.28a6.09,6.09,0,0,0-3.4,1.23,12.82,12.82,0,0,0-3.34,3.59,22.91,22.91,0,0,0-2.6,5.69,25.38,25.38,0,0,0-1,7.64v23.46h8.69v1.44h-25Z"/><path d="M561.74,128.68c0,.69,0,1.39,0,2.1s-.05,1.63-.05,2.72a64.87,64.87,0,0,0,.4,7.07,21.73,21.73,0,0,0,1.75,6.66,12.27,12.27,0,0,0,4,4.92,11.62,11.62,0,0,0,7.05,1.95,17.09,17.09,0,0,0,7.24-1.33,13.39,13.39,0,0,0,4.49-3.23A14,14,0,0,0,589,145.7q.79-1.95,1.2-3.18l1.5.31a31.54,31.54,0,0,1-1.15,3.23,15,15,0,0,1-2.7,4.2,16.33,16.33,0,0,1-5,3.69,18.2,18.2,0,0,1-8.14,1.59,25.29,25.29,0,0,1-9.24-1.65,21.08,21.08,0,0,1-7.35-4.71,21.33,21.33,0,0,1-4.79-7.33,25.36,25.36,0,0,1-1.7-9.48,22.79,22.79,0,0,1,1.75-8.76,24.6,24.6,0,0,1,4.79-7.53,24.11,24.11,0,0,1,7.15-5.28,19.37,19.37,0,0,1,14.78-1,17.74,17.74,0,0,1,5.94,3.33,18.24,18.24,0,0,1,4.6,6.1,21.5,21.5,0,0,1,1.85,9.43Zm20.58-1.43a20,20,0,0,0,.2-2.67V122a21.3,21.3,0,0,0-.65-5.74,9.66,9.66,0,0,0-1.8-3.59,6.38,6.38,0,0,0-2.8-1.89,10.77,10.77,0,0,0-3.54-.57,10.37,10.37,0,0,0-5.6,1.39,10.05,10.05,0,0,0-3.49,3.74,19.33,19.33,0,0,0-1.95,5.43,43.61,43.61,0,0,0-.85,6.46Z"/><path d="M631.56,80.2h16.29v72.46h7.69v1.44H639.45v-8.92h-.19a30.87,30.87,0,0,1-1.2,3,12.83,12.83,0,0,1-2.35,3.38,13.88,13.88,0,0,1-3.9,2.82,12.76,12.76,0,0,1-5.74,1.18,18.71,18.71,0,0,1-8.34-1.95,23.17,23.17,0,0,1-6.94-5.23,25.39,25.39,0,0,1-4.75-7.53,23.9,23.9,0,0,1,4.55-25.11,23,23,0,0,1,6.69-5,17.79,17.79,0,0,1,8.09-1.9,13.6,13.6,0,0,1,8.89,2.77,15.06,15.06,0,0,1,4.8,6.76h.2V81.64h-7.7Zm-17.28,50.43q0,5.33.3,9.68a25.34,25.34,0,0,0,1.5,7.44,9.83,9.83,0,0,0,3.6,4.71,13.46,13.46,0,0,0,13.23-.2,12.35,12.35,0,0,0,4-4.77,22.34,22.34,0,0,0,1.9-6.51,50.94,50.94,0,0,0,.5-7q0-4-.16-6.92a41.82,41.82,0,0,0-.54-5.17,18.76,18.76,0,0,0-1.1-3.9,18,18,0,0,0-1.7-3.07,11.89,11.89,0,0,0-3.9-3.38,12.42,12.42,0,0,0-6.09-1.34,10.46,10.46,0,0,0-5.74,1.44,9.49,9.49,0,0,0-3.5,4.1,22,22,0,0,0-1.75,6.4A65.07,65.07,0,0,0,614.28,130.63Z"/></g></g></svg>